<svg xmlns="http://www.w3.org/2000/svg" xmlns:xlink="http://www.w3.org/1999/xlink" version="1.1" x="0px" y="0px" viewBox="0 0 100 125" style="enable-background:new 0 0 100 100;" xml:space="preserve"><g><path d="M57.6,54c-6.2,0-11.3,5-11.3,11.3s5,11.3,11.3,11.3s11.3-5,11.3-11.3S63.8,54,57.6,54z M57.5,69.6c-3.5,0-6.3-2.8-6.3-6.3   S54,57,57.5,57s6.3,2.8,6.3,6.3S60.9,69.6,57.5,69.6z"/><path d="M57.5,44.1c-12.9,0-23.4,10.5-23.4,23.4s10.5,23.4,23.4,23.4s23.4-10.5,23.4-23.4S70.4,44.1,57.5,44.1z M57.7,86.3   c-10.8,0-19.6-8.8-19.6-19.6s8.8-19.6,19.6-19.6s19.6,8.8,19.6,19.6S68.5,86.3,57.7,86.3z"/><path d="M83.6,73.4c1-0.1,3-0.3,4.5-0.5c0.6-0.1,1.1-0.3,1.5-0.6c-2,0.3-5.1,0.5-5.8,0.6C83.7,73.1,83.6,73.2,83.6,73.4z"/><path d="M92.3,35.5c-0.1-1.5-0.2-2.8-0.3-4l-1.5,0.6c0.1,0.9,0.4,3.4,0.2,4.6c-0.2,1.6-1.2,2.8-2.7,3.1c-0.5,0.1-1.6,0.3-2.8,0.4   c-1.4,0.2-3.6,0.5-4.1,0.7c0,0.1,0,0.4,0.1,0.7c0,0,0,0,0,0c0,0,0,0,0,0c0.1,0.4,0.2,0.8,0.3,1.2v0c0,0,0.3,0.4,1,0.5   c1.5,0,5.3,2.1,5.7,6.6c0.3,3.9-1,7-4.3,10.1l0.2,1.6c0.1,0.8,0.2,1.5,0.3,2.3l0,0.1c0,0,0,0,0,0c0.1,0.8,0.1,1.6,0.1,2.4   c0,1.8-0.2,3.6-0.5,5.4c1.3-0.1,4.9-0.5,6.4-0.7c0-0.1,0.1-0.1,0.1-0.2c0-0.1,0.1-0.2,0.2-0.2c0.6-0.4,0.9-1.2,0.9-1.6   c0-0.1,0-0.1,0.1-0.2c0.7-1.4,0.9-4.9,1-5.5c0-0.4,0.2-6.6,0.2-10.9C92.7,48.2,92.6,41.1,92.3,35.5z"/><path d="M83.1,61.9c-2.2-12.1-12.8-21.3-25.5-21.3c-12.7,0-23.3,9.2-25.5,21.3l-0.2,1.1c-0.2,1.1-0.2,2.3-0.2,3.4   c0,14.3,11.6,25.9,25.9,25.9c14.3,0,25.9-11.6,25.9-25.9c0-0.8,0-1.6-0.1-2.4L83.1,61.9z M57.5,91.9C44,91.9,33.1,81,33.1,67.5   S44,43.1,57.5,43.1s24.4,10.9,24.4,24.4S70.9,91.9,57.5,91.9z"/><path d="M87.8,38.9c1.1-0.3,1.7-1.1,1.9-2.3c0.2-1.1-0.1-3.7-0.2-4.4c-0.3-0.2-1.1-0.5-2.2-0.5l-6.2,0.5c0,0-1.9,0.5-1.7,1.8   c0.2,1.2,0.9,4.1,1.3,6c0.6-0.2,1.8-0.4,4.3-0.7C86.3,39.1,87.4,39,87.8,38.9z"/><path d="M77.3,31.3c0.3,0.8,1.2,1,1.6,1c0.6-0.7,1.4-1,2-1.2l6.3-0.5c1.3-0.1,2.3,0.3,2.7,0.6l1.8-0.7c-0.4-2.4-1-4.2-1.8-5.4   c-0.9-1.4-4.5-1.9-5.8-2c-0.3,0-7-0.8-9.1-2.3c-0.2-0.1-0.3-0.3-0.5-0.4c0,0.4,0,0.7,0,0.8c0.2,0.3,0.3,0.6,0.3,0.6   C75,21.8,76.9,29.9,77.3,31.3z"/><path d="M76,35.9c-0.6-2.8-2.1-8.9-2.7-11c-0.6-2-3.1-2.2-3.9-2.3c-0.3,0.4-0.9,0.9-2.1,0.7c-2.4-0.4-15.5-0.4-17.7-0.1   c-1.7,0.2-2.5-0.2-2.9-0.6c-0.5,0.1-1.6,0.3-2.8,0.7c-1.3,0.5-1.5,1.4-1.8,2.5L42,26.4c-0.3,0.9-1.9,7.2-2.9,10.8   c2.5-2.8,8-7.3,17.8-7.3C66.5,29.9,73.4,34.1,76,35.9z"/><path d="M80.2,42c-1.3-2.5-3.7-4.4-3.7-4.4c0,0,0,0,0,0c-0.1-0.1-7.9-6.6-19.6-6.6c-13.5,0-18.4,8.8-18.5,8.9l0,0   c-0.1,0.1-3.3,6.2-4.2,8.3c-0.1,0.7-0.2,1.2-0.2,1.2L33.8,51c2.7-4.7,9.7-13.4,23.6-13.4c14.3,0,21.4,8.7,24.1,13.2l-1.1-7.7   C80.4,42.8,80.3,42.4,80.2,42z"/><path d="M87.2,50c-0.3-3.9-3.7-5.6-4.7-5.7c-0.3,0-0.6-0.1-0.8-0.2l2,14.6C86.4,56.2,87.5,53.4,87.2,50z"/><path d="M57.5,38.6c-18,0-23.9,14.8-24.2,15.6l-0.2,1.1c4.3-9.3,13.6-15.7,24.5-15.7c11,0,20.5,6.6,24.6,16.1l-0.3-2   C81.6,52.8,75.3,38.6,57.5,38.6z"/><path d="M19,23.8c-1.5,0.3-2.2,1.3-2.5,2c1.6-0.2,4.3-0.5,6.2-0.7C21.9,24.4,20.5,23.5,19,23.8z"/><path d="M11.9,32.5c2,0.3,7.2,0.5,9.2,0.4c1.9-0.1,5-1.2,5.4-2.9c0.2-1,0-2.1-0.5-2.9c-0.3-0.5-0.8-0.9-1.2-0.9   c-1.2-0.2-8.4,0.7-9.4,0.9c-1,0.2-1.9,0.1-1.9,0.1c-0.3,0-0.5-0.3-0.4-0.6c0-0.3,0.3-0.5,0.6-0.4c0,0,0.7,0.1,1.5-0.1   c0,0,0.1,0,0.2,0c0.3-0.8,1.1-2.7,3.5-3.2c2.5-0.5,4.7,1.6,5.3,2.3c0.3,0,0.6,0,0.8,0.1c0.7,0.1,1.3,0.6,1.8,1.4   c0.7,1.1,1,2.5,0.7,3.7c-0.6,2.5-4.5,3.6-6.3,3.7c-2,0.1-7.3-0.1-9.4-0.4c-1.1-0.1-1.9,0.1-2.5,0.3c0.4-0.1,0.8-0.2,1.3-0.2   c0.8,0,2.2,0.1,3.9,0.2c2.8,0.2,6.3,0.4,9.3,0.4c4.3,0,5.5-1.4,5.9-1.9c0-0.1,0.1-0.1,0.1-0.1c0.3-0.3,0.8-0.4,4.6-0.2   c0.4,0,0.7,0,0.8,0c0.4,0,0.7,0.3,1.1,0.7c0.5,0,1.3-0.2,1.6-0.8c0.1-0.2,0.7-2.1,1.3-3.8c0.9-2.9,2.1-6.5,2.7-7.9   c0,0,0-0.1,0.1-0.1c0-0.2,0-0.6,0-1.1c-0.9,0.6-2.1,1.2-3.8,1.7c-5,1.5-11.2,1.5-13.6,1.5c0,0,0,0,0,0c0,0,0,0,0,0   c-0.1,0-0.2,0-0.2-0.1c0,0,0,0,0,0c-0.1,0-0.1-0.1-0.2-0.2c0,0,0,0,0,0c0,0,0,0,0,0c0,0,0,0,0,0c-0.2-0.5-0.6-2.1-0.8-3.1   c-0.9,0.3-1.5,0.6-1.5,0.8c0,0.1,0,1.2,0,2.1c0,0.3-0.2,0.5-0.5,0.5c0,0-3.1,0.2-5.1,0.8c-2,0.7-3.3,1.8-4.8,4.3   c-1,1.7-1.8,4.1-2.1,5.5C9.7,32.6,10.7,32.3,11.9,32.5z M33.8,26.4c1.2,0,2.2,1,2.2,2.2s-1,2.2-2.2,2.2s-2.2-1-2.2-2.2   S32.5,26.4,33.8,26.4z"/><path d="M22.2,74.3C22.2,74.3,22.2,74.3,22.2,74.3c0.4-0.3,2.3-2,3.2-2.3c0.7-0.2,4.5-0.2,5.8-0.2c-0.3-1.7-0.5-3.5-0.5-5.3   c0-1.1,0.1-2.2,0.2-3.2c0,0,0,0,0-0.1l0-0.3c0.1-0.4,0.1-0.7,0.2-1.1l2-12.5c0-0.3,1-6.3,1.8-9.5c0.4-1.4,0.7-2.5,0.9-3.3   c0.2-0.9,0.5-1.6,0.5-1.8c0-0.3-0.8-1.5-1.1-1.7c-0.1,0-0.4,0-0.8,0c-0.9,0-3.3-0.2-3.8-0.1l0,0c-0.5,0.6-2,2.3-6.7,2.3   c-3,0-6.5-0.2-9.3-0.4c-1.7-0.1-3.1-0.2-3.8-0.2c-1.3,0-1.9,0.6-2.1,0.8c0,1.5-0.3,12.9-0.2,20.4l0,0.4C8.4,64.1,8.5,68.5,9,72.1   c0.2,1,0.5,1.3,0.5,1.3c0.1,0.1,1.5,1.3,6.9,1.3C21,74.7,22,74.4,22.2,74.3z"/><path d="M37.7,19.8c0.2-0.1,0.4-0.1,0.6-0.2L38,16.9c-0.5-0.3-2.5-0.9-6.9-0.5c-4.4,0.4-6.1,1.3-6.5,1.6l0.2,3.3   C27.5,21.3,33.2,21.2,37.7,19.8z"/><path d="M38.7,32.4c-0.4,0.8-1.2,1.1-1.9,1.2c0.2,0.4,0.4,0.8,0.4,1.1c0,0.3-0.1,0.8-0.5,2.1c-0.2,0.8-0.5,1.9-0.9,3.3   c-0.3,1.2-0.6,2.8-0.9,4.4c1.1-2.3,2.4-4.7,2.6-5c0.2-0.9,3.2-12,3.5-13.3l0.1-0.5c0.3-1.2,0.7-2.6,2.4-3.2   c1.8-0.6,3.2-0.8,3.3-0.8c0.2,0,0.4,0.1,0.5,0.3c0,0,0,0,0,0c0,0,0.4,0.6,2.1,0.3c2.2-0.3,15.5-0.3,18,0.1c1,0.2,1.2-0.4,1.2-0.4   c0.1-0.2,0.3-0.3,0.4-0.3c0.2,0,4.2-0.1,5.1,3c0.8,2.6,2.7,10.9,3,12.3c0.4,0.3,1.4,1.2,2.4,2.4c-0.4-1.8-0.9-4.1-1.1-5.1   c-0.1-0.3,0-0.6,0-0.9c-0.7-0.1-1.8-0.5-2.1-1.7c-0.4-1.5-2.3-9.3-2.4-9.6c0,0-0.3-0.9-1.4-1.2c-1.3-0.4-3-2.1-4.1-3.5   c-0.5-0.3-5.7-0.9-10.3-0.9c-4.9,0-10.1,0.5-10.6,0.8c0,0-0.1,0.1-0.3,0.3c-0.9,0.9-2.6,2.7-4.4,3.2c-0.1,0-0.1,0.1-0.1,0.1   c-0.6,1.3-1.7,4.9-2.6,7.8C39.3,30.9,38.9,32.2,38.7,32.4z"/><path d="M46.5,16.7c0.2-0.2,0.3-0.3,0.4-0.4c0.8-0.7,8.4-1,11.3-1c3.4,0,10.4,0.5,11.1,1.2c1.5,1.8,2.9,3,3.7,3.2   c0.3,0.1,0.6,0.2,0.8,0.4c0-0.5-0.1-1.2-0.2-1.6c-0.4-0.8-0.8-1.8-1.1-2.9c-0.3-0.9-0.7-1.9-1.1-3c-1-2.4-3-3-4-3.2v0.7   c0,0.1-0.1,0.3-0.2,0.4c-0.1,0.1-0.2,0.1-0.4,0.1c-0.1,0-6.4-0.2-9.1-0.2c-2.8,0-8,0.2-8.1,0.2c-0.1,0-0.3,0-0.4-0.1   C49,10.5,49,10.3,49,10.2V9.5c-2.5,0.3-3.2,1.6-3.8,2.7c-0.3,0.6-0.9,2.1-1.3,3.3c-0.4,1.2-0.7,2-0.9,2.4c0,0,0,0,0,0   c-0.1,0.3-0.2,1-0.2,1.6C44.3,18.9,45.8,17.4,46.5,16.7z"/><path d="M25.6,73c-0.5,0.1-1.8,1.2-2.7,2c-0.2,0.3-1.2,0.7-6.5,0.7c-3,0-4.9-0.4-6-0.8c0.3,0.5,0.9,1.1,2,1.4   c2.6,0.6,6.8,0.5,8.1,0.2c1.4-0.3,2.1-1,2.5-1.5c0.6-0.8,2.2-1.2,4.3-1.2h4.3c-0.1-0.3-0.2-0.6-0.3-1C29.4,72.8,26.2,72.8,25.6,73z   "/></g></svg>